<svg xmlns="http://www.w3.org/2000/svg" viewBox="0 0 32 32" enable-background="new 0 0 32 32"><style type="text/css">.st0{fill-rule:evenodd;clip-rule:evenodd;fill:#152600;} .st1{fill-rule:evenodd;clip-rule:evenodd;fill:#87EC00;} .st2{fill:#87EC00;}</style><path class="st0" d="M0 0h32v32h-32z"/><path class="st1" d="M0 0v32h32v-32h-32zm1 1h30v30h-30v-30z"/><path class="st2" d="M9.6 10.5h-3.7c-.1 0-.2 0-.1-.2l.2-1.8c0-.1.1-.2.2-.2h9.2c.1 0 .2 0 .2.2l.2 1.8c0 .1 0 .2-.2.2h-3.7v12.3c0 .1 0 .2-.2.2h-2c-.1 0-.2 0-.2-.2v-12.3zM19.6 16.9l3.4-4.6c.1-.1.1-.2.2-.2h2.2c.1 0 .2.1.1.2-.5.7-2.9 3.7-3.7 4.7v.1l4.3 5.7c0 .1 0 .2-.1.2h-2.6c-.1 0-.2 0-.2-.1-.7-1-2.6-3.6-3.5-4.9v4.9c0 .1 0 .2-.2.2h-2.1c-.2 0-.2 0-.2-.2v-14.4c0-.1 0-.1.2-.1h2.1c.1 0 .2 0 .2.2v8.3z"/></svg>